#!OML:ASF F:\VICON\USERDATA\INSTALL\rory3\rory3.ASF
:FULLY-SPECIFIED
:DEGREES
514
root 2.01492 16.3229 15.9725 17.5569 -0.737849 0.36497
lowerback -7.74782 1.60827 0.711781
upperback -5.55805 2.10163 -0.525922
thorax -1.35604 1.0282 -0.805461
lowerneck -8.00293 -0.797601 -1.48567
upperneck 37.2679 -1.58216 2.17892
head 14.0731 -0.58924 0.938114
rclavicle -3.4719e-014 -8.34896e-015
rhumerus -55.3672 66.2538 -99.7545
rradius 88.7495
rwrist -14.7694
rhand 27.5996 -0.0455495
rfingers 7.12502
rthumb 51.5365 -20.4225
lclavicle -3.4719e-014 -8.34896e-015
lhumerus -73.4476 -59.1786 98.8951
lradius 98.6554
lwrist 20.6744
lhand 28.9191 23.191
lfingers 7.12502
lthumb 52.7326 42.8512
rfemur -34.0899 -0.815637 33.8416
rtibia 45.2047
rfoot -45.9003 -28.7235
rtoes 26.0593
lfemur -39.7589 10.5445 -18.3948
ltibia 79.4577
lfoot 3.71726 26.2457
ltoes 10.2541
515
root 1.99791 16.3005 15.9526 18.7044 -2.80399 -0.678483
lowerback -8.44358 2.44767 1.04249
upperback -5.77938 3.19126 -0.382106
thorax -1.17546 1.56849 -0.745126
lowerneck -8.16927 -0.882839 -1.69786
upperneck 37.0833 -1.759 2.47115
head 14.0347 -0.656584 1.06805
rclavicle -3.88127e-014 -1.08338e-014
rhumerus -50.9344 65.9691 -95.2908
rradius 90.4622
rwrist -16.0342
rhand 27.3128 -0.357119
rfingers 7.12502
rthumb 51.2756 -20.8834
lclavicle -3.88127e-014 -1.08338e-014
lhumerus -69.2804 -58.7183 94.3383
lradius 100.455
lwrist 21.7519
lhand 30.0086 24.173
lfingers 7.12502
lthumb 53.7147 43.2022
rfemur -35.1538 0.590616 34.5375
rtibia 45.2706
rfoot -44.4291 -28.6301
rtoes 24.5654
lfemur -42.3969 12.612 -18.028
ltibia 80.0553
lfoot 0.212465 25.5839
ltoes 8.26724
516
root 2.00735 16.2991 15.9698 18.0839 -1.80861 -0.130784
lowerback -7.82147 2.08229 0.857358
upperback -5.53137 2.72351 -0.443208
thorax -1.27394 1.33818 -0.75744
lowerneck -7.95254 -0.898279 -1.65914
upperneck 36.8152 -1.77257 2.43118
head 13.8616 -0.664104 1.04013
rclavicle 2.10153e-014 -1.09332e-014
rhumerus -46.6337 65.3603 -90.9706
rradius 92.0088
rwrist -17.4593
rhand 27.5268 -0.401661
rfingers 7.12502
rthumb 51.4703 -20.8168
lclavicle 2.10153e-014 -1.09332e-014
lhumerus -65.1454 -57.7043 89.8861
lradius 102.115
lwrist 22.9525
lhand 31.2628 25.1253
lfingers 7.12502
lthumb 54.8385 43.3801
rfemur -34.6285 -0.188335 34.1859
rtibia 45.4109
rfoot -44.9412 -28.975
rtoes 24.3022
lfemur -43.1774 11.0465 -18.1613
ltibia 80.0698
lfoot -2.7109 25.3692
ltoes 5.62872
517
root 2.00646 16.3038 15.9897 17.6941 -1.37537 0.531004
lowerback -7.25659 1.86876 0.285317
upperback -5.41588 2.47492 -0.549369
thorax -1.48855 1.22674 -0.581106
lowerneck -7.80033 -0.878597 -1.67045
upperneck 36.5787 -1.71556 2.3752
head 13.717 -0.648999 1.02493
rclavicle -2.14812e-014 -6.36111e-015
rhumerus -42.9348 64.3491 -87.182
rradius 93.7108
rwrist -18.808
rhand 28.689 -0.581475
rfingers 7.12502
rthumb 52.5245 -20.3703
lclavicle -2.14812e-014 -6.36111e-015
lhumerus -61.1917 -56.3186 85.7285
lradius 103.672
lwrist 24.2551
lhand 31.7973 25.8084
lfingers 7.12502
lthumb 55.3151 43.7167
rfemur -34.3425 -0.501824 33.6073
rtibia 45.5804
rfoot -45.1448 -29.6768
rtoes 23.3788
lfemur -44.1132 9.99161 -18.6122
ltibia 79.9143
lfoot -4.83075 25.2635
ltoes 3.84499
518
root 2.00322 16.3034 16.0112 17.4392 -1.0849 1.01316
lowerback -6.76022 1.74632 -0.18612
upperback -5.35884 2.33548 -0.626741
thorax -1.72045 1.16833 -0.420963
lowerneck -8.19371 -0.870043 -1.54653
upperneck 36.8758 -1.67591 2.22065
head 13.9372 -0.630063 0.948746
rclavicle -1.27284e-014 -1.98785e-015
rhumerus -39.4633 63.1079 -83.7288
rradius 95.3113
rwrist -19.9626
rhand 30.0427 -0.523345
rfingers 7.12502
rthumb 53.7454 -19.5321
lclavicle -1.27284e-014 -1.98785e-015
lhumerus -57.6313 -54.7109 81.9555
lradius 105.331
lwrist 25.6039
lhand 32.114 26.2862
lfingers 7.12502
lthumb 55.5968 43.9842
rfemur -34.1148 -0.48905 33.1341
rtibia 45.7227
rfoot -45.6916 -29.8569
rtoes 23.6385
lfemur -45.0989 9.13827 -18.9461
ltibia 79.5792
lfoot -7.31725 25.1516
ltoes 2.19045
519
root 1.99778 16.2975 16.025 17.6965 -1.78754 0.786066
lowerback -6.65512 2.0272 -0.177503
upperback -5.46744 2.7085 -0.633198
thorax -1.88879 1.35506 -0.420164
lowerneck -8.44898 -0.865213 -1.47959
upperneck 36.9838 -1.72029 2.32361
head 14.0463 -0.624243 0.973256
rclavicle -3.13893e-014 -1.15295e-014
rhumerus -36.0293 61.6995 -80.4759
rradius 96.8269
rwrist -21.4039
rhand 30.9041 -0.31273
rfingers 7.12502
rthumb 54.5179 -18.7945
lclavicle -3.13893e-014 -1.15295e-014
lhumerus -54.2561 -52.9787 78.4398
lradius 106.808
lwrist 27.0848
lhand 32.4201 26.6312
lfingers 7.12502
lthumb 55.8685 44.1224
rfemur -34.3091 0.0213646 33.212
rtibia 45.8151
rfoot -45.6024 -29.5383
rtoes 24.3661
lfemur -46.6469 9.38785 -18.9019
ltibia 79.2875
lfoot -9.76489 25.0941
ltoes 1.41277
520
root 1.99737 16.2938 16.0373 17.6535 -1.88334 0.728605
lowerback -6.41076 2.07734 -0.157791
upperback -5.39026 2.77411 -0.632924
thorax -1.94258 1.38729 -0.435477
lowerneck -7.94296 -0.895459 -1.64373
upperneck 36.2448 -1.83761 2.66524
head 13.6034 -0.660408 1.11579
rclavicle 1.13618e-014 3.27995e-015
rhumerus -32.8146 60.195 -77.553
rradius 98.2878
rwrist -23.217
rhand 30.7286 -0.0994692
rfingers 7.12502
rthumb 54.3608 -18.6906
lclavicle 1.13618e-014 3.27995e-015
lhumerus -50.7936 -50.8036 74.981
lradius 108.216
lwrist 28.7506
lhand 32.8705 27.2624
lfingers 7.12502
lthumb 56.2675 44.4427
rfemur -34.2235 0.120303 33.2585
rtibia 45.8815
rfoot -45.5739 -29.627
rtoes 24.2498
lfemur -48.0029 9.01105 -18.8202
ltibia 78.8019
lfoot -11.3468 25.2983
ltoes 0.283783
521
root 1.99956 16.2877 16.0482 17.7556 -1.90203 0.672223
lowerback -5.73255 2.15258 -0.0641501
upperback -5.87869 2.86697 -0.71556
thorax -2.81784 1.42788 -0.610041
lowerneck -7.19176 -0.973674 -1.60211
upperneck 36.2166 -2.01872 2.81475
head 13.4328 -0.720363 1.14544
rclavicle 5.54733e-015 1.50082e-014
rhumerus -31.9979 58.4777 -76.7995
rradius 99.7331
rwrist -25.3035
rhand 29.6053 -0.0150819
rfingers 7.12502
rthumb 53.3518 -19.2821
lclavicle 5.54733e-015 1.50082e-014
lhumerus -48.8939 -48.6391 72.7476
lradius 109.715
lwrist 30.3113
lhand 32.8623 27.4595
lfingers 7.12502
lthumb 56.2603 44.6455
rfemur -34.3057 0.145221 33.3068
rtibia 45.9627
rfoot -45.5215 -29.5551
rtoes 24.3708
lfemur -49.4722 8.48003 -18.7329
ltibia 78.1662
lfoot -12.582 25.5599
ltoes -0.715589
522
root 2.00585 16.2896 16.0709 17.5743 -1.62416 1.03815
lowerback -5.18116 2.07923 -0.264895
upperback -5.97545 2.77067 -0.837825
thorax -3.23035 1.38335 -0.652167
lowerneck -7.46546 -1.02196 -1.39343
upperneck 36.6408 -2.06896 2.60369
head 13.6818 -0.735368 1.022
rclavicle -1.70085e-014 2.28602e-015
rhumerus -30.3427 56.6261 -75.3452
rradius 101.049
rwrist -27.7021
rhand 28.5987 0.172552
rfingers 7.12502
rthumb 52.4428 -19.6664
lclavicle -1.70085e-014 2.28602e-015
lhumerus -46.5301 -46.0775 70.4855
lradius 110.996
lwrist 31.7797
lhand 32.6733 27.0266
lfingers 7.12502
lthumb 56.093 44.344
rfemur -34.1331 -0.216924 32.9732
rtibia 46.0614
rfoot -45.4961 -29.7607
rtoes 23.9955
lfemur -50.3625 7.51515 -18.9975
ltibia 77.2749
lfoot -13.5481 25.6044
ltoes -1.76213
523
root 2.00629 16.2977 16.0952 17.2331 -0.949362 1.7315
lowerback -4.6476 1.81731 -0.780139
upperback -5.83487 2.42705 -0.949843
thorax -3.40134 1.22776 -0.503875
lowerneck -7.64061 -1.03654 -1.43433
upperneck 36.5539 -2.0869 2.63088
head 13.6822 -0.743759 1.03631
rclavicle 3.85829e-014 6.75868e-015
rhumerus -27.9676 54.78 -73.333
rradius 102.286
rwrist -30.3288
rhand 27.8398 0.283229
rfingers 7.12502
rthumb 51.7548 -19.967
lclavicle 3.85829e-014 6.75868e-015
lhumerus -44.0188 -43.1391 68.3479
lradius 112.288
lwrist 33.5244
lhand 32.7135 26.843
lfingers 7.12502
lthumb 56.1286 44.1326
rfemur -33.8092 -0.371362 32.3417
rtibia 46.1487
rfoot -46.2307 -29.9162
rtoes 25.1755
lfemur -51.039 6.13809 -19.4589
ltibia 76.1667
lfoot -14.6306 25.526
ltoes -2.5708
